<svg width="25" height="25" viewBox="0 0 25 25" fill="none" xmlns="http://www.w3.org/2000/svg">
<path d="M5.48292 7.697C6.69132 7.697 7.67092 6.7174 7.67092 5.509C7.67092 4.3006 6.69132 3.321 5.48292 3.321C4.27452 3.321 3.29492 4.3006 3.29492 5.509C3.29492 6.7174 4.27452 7.697 5.48292 7.697Z" fill="#0A66C2"/>
<path d="M9.73673 9.355V21.494H13.5057V15.491C13.5057 13.907 13.8037 12.373 15.7677 12.373C17.7047 12.373 17.7287 14.184 17.7287 15.591V21.495H21.4997V14.838C21.4997 11.568 20.7957 9.055 16.9737 9.055C15.1387 9.055 13.9087 10.062 13.4057 11.015H13.3547V9.355H9.73673ZM3.59473 9.355H7.36973V21.494H3.59473V9.355Z" fill="#0A66C2"/>
</svg>
