<svg width="40" height="40" viewBox="0 0 40 40" fill="none" xmlns="http://www.w3.org/2000/svg">
<circle cx="19.9446" cy="19.834" r="19.834" fill="#55ACEE"/>
<path d="M15.5797 28.9885C24.083 28.9885 28.7346 21.9428 28.7346 15.8435C28.7346 15.6463 28.7346 15.4463 28.7262 15.2492C29.6318 14.5936 30.4134 13.7819 31.0344 12.8523C30.1884 13.2252 29.292 13.4711 28.3741 13.5818C29.3409 13.0038 30.0651 12.0945 30.4119 11.0229C29.5035 11.561 28.5093 11.9388 27.4728 12.1397C26.7759 11.3975 25.8538 10.9059 24.8492 10.7409C23.8447 10.5759 22.8137 10.7467 21.9161 11.227C21.0185 11.7072 20.3043 12.4701 19.8841 13.3974C19.4639 14.3246 19.3612 15.3646 19.592 16.3561C17.7538 16.2639 15.9555 15.7864 14.3137 14.9545C12.672 14.1226 11.2234 12.9548 10.062 11.527C9.47241 12.5454 9.29248 13.7499 9.55875 14.8961C9.82502 16.0422 10.5175 17.0441 11.4957 17.6982C10.7627 17.6733 10.0458 17.4765 9.40293 17.1236V17.187C9.40419 18.2538 9.77374 19.2874 10.4491 20.1131C11.1245 20.9388 12.0643 21.5061 13.1096 21.7189C12.7128 21.8282 12.3029 21.8827 11.8914 21.8808C11.6013 21.8817 11.3117 21.8548 11.0267 21.8006C11.3221 22.7189 11.8974 23.5217 12.6719 24.0968C13.4465 24.6718 14.3814 24.9902 15.3459 25.0073C13.7075 26.2942 11.6835 26.9921 9.60009 26.9887C9.23297 26.9903 8.86612 26.9691 8.50162 26.9254C10.6162 28.2735 13.072 28.9893 15.5797 28.9885Z" fill="white"/>
</svg>
