<svg width="40" height="40" viewBox="0 0 40 40" fill="none" xmlns="http://www.w3.org/2000/svg">
<circle cx="20.0553" cy="19.834" r="19.834" fill="#0A66C2"/>
<path d="M13.1675 15.088C14.3849 15.088 15.3717 14.1012 15.3717 12.8839C15.3717 11.6665 14.3849 10.6797 13.1675 10.6797C11.9502 10.6797 10.9634 11.6665 10.9634 12.8839C10.9634 14.1012 11.9502 15.088 13.1675 15.088Z" fill="white"/>
<path d="M17.4531 16.7588V28.9875H21.2499V22.9401C21.2499 21.3444 21.5501 19.7991 23.5286 19.7991C25.4799 19.7991 25.5041 21.6234 25.5041 23.0408V28.9885H29.303V22.2823C29.303 18.9881 28.5938 16.4565 24.7435 16.4565C22.895 16.4565 21.6559 17.471 21.1492 18.431H21.0978V16.7588H17.4531ZM11.2657 16.7588H15.0686V28.9875H11.2657V16.7588Z" fill="white"/>
</svg>
