<svg width="79" height="65" viewBox="0 0 79 65" fill="none" xmlns="http://www.w3.org/2000/svg">
<path d="M76.7036 27.0852C76.3084 25.8861 75.934 24.8731 75.6428 23.8188C75.4555 23.1573 75.0811 22.9712 74.4363 22.9919C72.3977 23.0746 70.3383 22.9712 68.3205 23.2193C66.3028 23.4674 64.9299 22.8678 64.0146 21.0693C63.7442 20.5318 63.2865 20.0563 62.8913 19.5808C62.3504 18.9399 62.2464 18.299 62.5585 17.4928C63.4529 15.2187 64.2226 12.9033 65.1171 10.6086C65.4083 9.86437 65.2627 9.40956 64.597 8.97542C63.3697 8.14849 62.2256 7.25955 61.0399 6.43262C59.3758 5.29559 59.8334 5.2129 58.1693 6.45329C56.3387 7.81772 54.5082 9.16148 52.6984 10.5673C52.116 11.0221 51.5543 11.0841 50.8679 10.836C49.7654 10.4225 48.6629 10.0091 47.5188 9.76101C46.5411 9.5336 46.0835 8.97542 45.8339 8.0658C45.1682 5.7504 44.4193 3.45567 43.7537 1.14027C43.5665 0.478726 43.2336 0.147955 42.5472 0.127281C40.8414 0.106608 39.1565 0.106608 37.4716 0.0239153C36.5355 -0.0174311 36.0154 0.313341 35.745 1.24364C35.121 3.49702 34.3721 5.70905 33.7272 7.96244C33.4776 8.85138 33.0616 9.36821 32.1047 9.57495C30.8982 9.8437 29.6917 10.2158 28.5476 10.6706C27.7571 10.9807 27.1747 10.836 26.5506 10.3605C24.5121 8.81004 22.4527 7.30089 20.4349 5.72973C19.8941 5.31626 19.4781 5.31626 18.958 5.70905C17.5019 6.76339 16.025 7.79705 14.548 8.78936C13.924 9.20283 13.9032 9.63697 14.1528 10.2778C15.0681 12.6553 15.9418 15.0534 16.753 17.4514C16.8986 17.8856 16.753 18.5471 16.5034 18.9399C15.7545 20.0976 14.8393 21.152 14.0696 22.289C13.612 22.9505 13.0711 23.2193 12.2598 23.1779C9.70124 23.0746 7.14262 23.0125 4.5632 22.9919C4.20957 22.9919 3.64793 23.1573 3.54392 23.4053C3.06548 24.563 2.71185 25.7621 2.25421 27.0852C2.81586 27.0852 3.19029 27.0852 3.58552 27.0852C7.39224 27.0852 11.2198 27.0025 15.0265 27.1265C16.5242 27.1679 17.5227 26.8784 18.0219 25.39C18.1883 24.9145 18.5628 24.501 18.8332 24.0876C25.1153 14.4538 37.9916 10.5673 48.6213 15.0327C54.1338 17.3481 58.2733 21.1106 61.1231 26.3409C61.2896 26.6717 61.7472 27.0645 62.0592 27.0645C66.8644 27.1058 71.6904 27.0852 76.7036 27.0852Z" fill="white"/>
<path d="M76.7036 27.0853C71.6696 27.0853 66.8644 27.106 62.0384 27.044C61.7264 27.044 61.2687 26.6512 61.1023 26.3204C58.2525 21.0901 54.1129 17.3276 48.6005 15.0122C37.9916 10.5674 25.1153 14.454 18.7916 24.067C18.5003 24.5012 18.1259 24.894 17.9803 25.3695C17.4811 26.8579 16.4826 27.168 14.9849 27.106C11.1781 26.982 7.37142 27.0647 3.5439 27.0647C3.16947 27.0647 2.79503 27.0647 2.21259 27.0647C2.64942 25.7622 3.00305 24.5425 3.50229 23.3848C3.6063 23.1367 4.16795 22.9714 4.52158 22.9714C7.08019 22.992 9.65961 23.0541 12.2182 23.1574C13.0503 23.1988 13.5703 22.93 14.028 22.2685C14.8184 21.1314 15.7129 20.0771 16.4618 18.9194C16.7114 18.5266 16.857 17.8651 16.7114 17.4309C15.9001 15.0122 15.0057 12.6347 14.1112 10.2573C13.8616 9.61646 13.9032 9.18232 14.5064 8.76886C16.0041 7.77654 17.4603 6.72221 18.9164 5.68854C19.4364 5.31643 19.8525 5.29575 20.3933 5.70922C22.4111 7.28038 24.4913 8.78953 26.509 10.34C27.1331 10.8155 27.7155 10.9809 28.506 10.6501C29.6501 10.1953 30.8566 9.82319 32.0631 9.55444C33.02 9.3477 33.436 8.83087 33.6856 7.94193C34.3097 5.68854 35.0585 3.47651 35.7034 1.22313C35.9738 0.292833 36.4939 -0.0379389 37.4299 0.0034075C39.1149 0.0861004 40.8206 0.0861004 42.5056 0.106774C43.2128 0.106774 43.5248 0.437545 43.7121 1.11976C44.3777 3.43516 45.1266 5.72989 45.7922 8.04529C46.0419 8.95491 46.4995 9.51309 47.4772 9.7405C48.6213 10.0092 49.7238 10.402 50.8263 10.8155C51.5127 11.0843 52.0744 11.0016 52.6568 10.5468C54.4666 9.16165 56.2971 7.79721 58.1277 6.43278C59.7918 5.19239 59.355 5.27508 60.9983 6.41211C62.184 7.23904 63.3489 8.12799 64.5554 8.91357C65.2211 9.34771 65.3667 9.80252 65.0754 10.5468C64.2018 12.8208 63.4113 15.1362 62.5168 17.4309C62.2048 18.2372 62.3088 18.8781 62.8497 19.5189C63.2449 19.9944 63.6817 20.4699 63.973 21.0074C64.8882 22.806 66.2611 23.4055 68.2789 23.1574C70.2967 22.9093 72.3561 23.0127 74.3946 22.93C75.0395 22.9093 75.4139 23.1161 75.6011 23.7569C75.9548 24.8733 76.3292 25.8863 76.7036 27.0853Z" fill="#FF3811"/>
<path d="M55.5691 34.0729C53.1145 31.6541 50.639 29.2147 48.1636 26.7546C47.7268 26.3204 47.4564 26.6098 47.1444 26.9199C45.9795 28.0983 44.8146 29.2767 43.6289 30.4137C42.88 31.1373 42.0687 31.8402 41.2783 32.5431C41.3407 32.6464 41.4031 32.7291 41.4655 32.8325C43.7745 32.3777 45.7922 32.8532 47.4564 34.4863C49.0997 36.1195 49.5366 38.1662 49.1205 40.3782C51.2839 38.2695 53.3849 36.2022 55.5691 34.0729Z" fill="white"/>
<path d="M37.638 32.7085C37.326 32.357 37.1803 32.1296 36.9931 31.9435C35.329 30.2897 33.6233 28.6772 32.0007 26.982C31.4183 26.3824 31.0646 26.4031 30.503 26.982C28.3396 29.1733 26.1762 31.3233 23.9504 33.4527C23.3888 33.9902 23.5136 34.321 23.992 34.7964C25.7394 36.5123 27.4659 38.2489 29.2133 39.9648C29.3589 40.1095 29.5669 40.1922 29.8165 40.3575C29.0885 35.396 32.5832 31.9849 37.638 32.7085Z" fill="white"/>
<path d="M29.5461 24.6045C26.9043 27.2713 24.3457 29.8762 21.8079 32.4396C21.9951 32.6877 22.2447 33.0392 22.4735 33.3286C25.1569 30.6617 27.7364 28.1189 30.4822 25.4107C30.191 25.1627 29.8581 24.8732 29.5461 24.6045Z" fill="white"/>
<path d="M59.0638 30.6617C59.0014 30.5584 58.9598 30.4343 58.8766 30.331C56.526 27.9949 54.1962 25.6795 51.8456 23.3434C51.4504 22.9506 51.1591 22.9299 50.7223 23.3434C50.2647 23.7982 50.3479 24.1083 50.7639 24.5218C52.8649 26.5684 54.9243 28.6358 57.0044 30.7031C57.3373 31.0339 57.6909 31.3439 58.1693 31.7988C58.4814 31.406 58.731 31.0959 59.0638 30.6617Z" fill="white"/>
<path d="M57.3997 32.3154C54.9866 29.9173 52.6153 27.5813 50.2439 25.2038C49.8486 24.811 49.5158 24.5009 48.9749 25.0798C48.4549 25.638 48.7461 25.9687 49.1622 26.3615C51.2839 28.4495 53.3849 30.5375 55.4859 32.6255C56.422 33.5765 56.4428 33.5765 57.3997 32.3154Z" fill="white"/>
<path d="M28.6725 23.8395C27.7364 22.7025 27.7572 22.7025 26.7587 23.6741C24.7201 25.7001 22.6816 27.7054 20.6638 29.7314C19.6861 30.703 19.7069 30.8271 20.8718 31.4886C23.472 28.9458 26.0514 26.403 28.6725 23.8395Z" fill="white"/>
<path d="M55.5691 34.0727C53.3849 36.2227 51.2839 38.2694 49.1205 40.3987C49.5366 38.1867 49.0997 36.1607 47.4564 34.5068C45.7922 32.853 43.7537 32.3982 41.4655 32.853C41.4031 32.7496 41.3407 32.6669 41.2783 32.5636C42.0687 31.8607 42.8592 31.1785 43.6289 30.4342C44.8146 29.2765 45.9795 28.1188 47.1444 26.9404C47.4564 26.6303 47.7268 26.3409 48.1636 26.7751C50.639 29.1938 53.1145 31.6333 55.5691 34.0727ZM49.8902 30.7236C49.4533 31.3025 48.9333 31.6953 48.9749 31.9847C49.0373 32.3362 49.5782 32.6256 49.911 32.9357C50.2022 32.6256 50.7015 32.3155 50.7223 31.9847C50.7639 31.6539 50.3062 31.2818 49.8902 30.7236Z" fill="white"/>
<path d="M37.638 32.7083C32.5624 31.9847 29.0885 35.3958 29.8165 40.378C29.5669 40.2127 29.3589 40.13 29.2133 39.9853C27.4659 38.2694 25.7394 36.5328 23.992 34.817C23.5136 34.3415 23.3888 34.0107 23.9504 33.4732C26.1554 31.3438 28.3396 29.1732 30.503 27.0025C31.0646 26.4236 31.4183 26.4029 32.0007 27.0025C33.6233 28.6977 35.329 30.3102 36.9931 31.964C37.1803 32.1294 37.3468 32.3568 37.638 32.7083ZM30.3782 32.0467C29.7957 31.5713 29.4213 31.0544 29.1509 31.0958C28.7764 31.1578 28.4644 31.6746 28.1316 31.9847C28.4436 32.2948 28.714 32.791 29.0677 32.853C29.3589 32.8943 29.7541 32.4395 30.3782 32.0467Z" fill="white"/>
<path d="M29.5461 24.6045C29.8581 24.8732 30.191 25.142 30.4822 25.4107C27.7572 28.1189 25.1777 30.6617 22.4735 33.3286C22.2447 33.0185 21.9743 32.6671 21.8079 32.4396C24.3457 29.8762 26.9251 27.2713 29.5461 24.6045Z" fill="white"/>
<path d="M59.0638 30.6616C58.7309 31.0957 58.4813 31.4058 58.1693 31.8193C57.6909 31.3645 57.3372 31.0544 57.0044 30.7236C54.9242 28.6563 52.8648 26.5889 50.7639 24.5423C50.327 24.1288 50.2438 23.8187 50.7223 23.3639C51.1383 22.9505 51.4503 22.9711 51.8456 23.3639C54.1754 25.7 56.526 28.0154 58.8765 30.3515C58.9598 30.4135 59.0014 30.5582 59.0638 30.6616Z" fill="white"/>
<path d="M57.3997 32.3154C56.4636 33.5765 56.4428 33.5765 55.4859 32.6255C53.3849 30.5375 51.2839 28.4289 49.1622 26.3615C48.7461 25.9687 48.4549 25.638 48.9749 25.0798C49.5158 24.5009 49.8486 24.811 50.2439 25.2038C52.6153 27.5813 54.9866 29.9173 57.3997 32.3154Z" fill="white"/>
<path d="M28.6725 23.8396C26.0514 26.4237 23.472 28.9458 20.8718 31.5093C19.7069 30.8478 19.6861 30.7237 20.6638 29.7521C22.7024 27.7261 24.7409 25.7208 26.7587 23.6948C27.7572 22.7025 27.7572 22.7025 28.6725 23.8396Z" fill="white"/>
<path d="M49.8902 30.7236C50.2855 31.3025 50.7431 31.6539 50.7223 31.9847C50.7015 32.3155 50.2022 32.6256 49.911 32.9357C49.5782 32.6256 49.0373 32.3568 48.9749 31.9847C48.9333 31.6953 49.4534 31.3025 49.8902 30.7236Z" fill="white"/>
<path d="M30.3782 32.0469C29.7541 32.4397 29.3797 32.8945 29.0469 32.8325C28.6932 32.7912 28.4228 32.2743 28.1108 31.9642C28.4436 31.6541 28.7556 31.1373 29.1301 31.0753C29.4213 31.0546 29.7957 31.5921 30.3782 32.0469Z" fill="white"/>
<path d="M5.92918 51.2634C5.08889 51.2634 4.43827 51.5803 3.97731 52.2141C3.51635 52.8431 3.28587 53.7218 3.28587 54.8502C3.28587 57.1982 4.16697 58.3722 5.92918 58.3722C6.66864 58.3722 7.56415 58.1874 8.61571 57.8176V59.6903C7.75141 60.0504 6.78628 60.2305 5.72031 60.2305C4.18858 60.2305 3.01697 59.7671 2.20549 58.8404C1.39401 57.9089 0.988273 56.574 0.988273 54.8358C0.988273 53.741 1.18754 52.7831 1.58608 51.962C1.98462 51.1361 2.55602 50.5047 3.30027 50.0678C4.04933 49.626 4.92564 49.4051 5.92918 49.4051C6.95194 49.4051 7.97949 49.6524 9.01185 50.147L8.2916 51.962C7.89786 51.7747 7.50173 51.6115 7.10319 51.4722C6.70465 51.333 6.31332 51.2634 5.92918 51.2634ZM15.8038 60.0864L15.3789 58.9916H15.3212C14.9515 59.4574 14.5698 59.7815 14.176 59.964C13.7871 60.1416 13.2781 60.2305 12.6491 60.2305C11.876 60.2305 11.2662 60.0096 10.8197 59.5678C10.3779 59.1261 10.157 58.4971 10.157 57.6808C10.157 56.8261 10.4547 56.1971 11.0502 55.7937C11.6504 55.3856 12.5531 55.1599 13.7583 55.1167L15.1556 55.0735V54.7206C15.1556 53.9043 14.7378 53.4961 13.9023 53.4961C13.2589 53.4961 12.5027 53.6906 11.6336 54.0795L10.9061 52.5958C11.8328 52.1109 12.8604 51.8684 13.9888 51.8684C15.0691 51.8684 15.8974 52.1037 16.4736 52.5742C17.0498 53.0448 17.3379 53.7602 17.3379 54.7206V60.0864H15.8038ZM15.1556 56.3555L14.3057 56.3843C13.6671 56.4036 13.1917 56.5188 12.8796 56.7301C12.5675 56.9413 12.4114 57.263 12.4114 57.6952C12.4114 58.3146 12.7667 58.6243 13.4774 58.6243C13.9864 58.6243 14.3921 58.4779 14.6946 58.185C15.0019 57.8921 15.1556 57.5031 15.1556 57.0182V56.3555ZM24.1011 51.8828C24.3988 51.8828 24.6461 51.9044 24.8429 51.9476L24.6773 54.0075C24.4996 53.9595 24.2835 53.9355 24.029 53.9355C23.328 53.9355 22.7806 54.1156 22.3869 54.4757C21.9979 54.8358 21.8035 55.34 21.8035 55.9882V60.0864H19.6067V52.034H21.2705L21.5946 53.3881H21.7026C21.9523 52.9368 22.2884 52.5742 22.711 52.3005C23.1383 52.022 23.6017 51.8828 24.1011 51.8828ZM39.0462 54.7206C39.0462 56.454 38.5517 57.7816 37.5625 58.7035C36.5782 59.6255 35.1545 60.0864 33.2915 60.0864H30.3096V49.5564H33.6156C35.3346 49.5564 36.6694 50.0101 37.6202 50.9177C38.5709 51.8252 39.0462 53.0928 39.0462 54.7206ZM36.727 54.7782C36.727 52.5166 35.7283 51.3858 33.7308 51.3858H32.5424V58.2426H33.5003C35.6515 58.2426 36.727 57.0878 36.727 54.7782ZM42.8059 56.0458C42.8059 56.8429 42.9356 57.4455 43.1949 57.8537C43.459 58.2618 43.8863 58.4659 44.4769 58.4659C45.0627 58.4659 45.4829 58.2642 45.7374 57.8609C45.9966 57.4527 46.1263 56.8477 46.1263 56.0458C46.1263 55.2488 45.9966 54.6509 45.7374 54.2524C45.4781 53.8539 45.0531 53.6546 44.4625 53.6546C43.8767 53.6546 43.4542 53.8539 43.1949 54.2524C42.9356 54.6461 42.8059 55.2439 42.8059 56.0458ZM48.3735 56.0458C48.3735 57.3567 48.0278 58.3818 47.3363 59.1213C46.6449 59.8607 45.6821 60.2305 44.4481 60.2305C43.675 60.2305 42.9932 60.0624 42.4026 59.7263C41.812 59.3854 41.3582 58.898 41.0413 58.2642C40.7244 57.6304 40.566 56.8909 40.566 56.0458C40.566 54.7302 40.9093 53.7074 41.5959 52.9776C42.2826 52.2477 43.2477 51.8828 44.4913 51.8828C45.2644 51.8828 45.9462 52.0508 46.5368 52.387C47.1274 52.7231 47.5812 53.2056 47.8981 53.8347C48.215 54.4637 48.3735 55.2007 48.3735 56.0458ZM53.4584 60.2305C50.952 60.2305 49.6987 58.8548 49.6987 56.1034C49.6987 54.735 50.0396 53.6906 50.7215 52.9704C51.4033 52.2453 52.3805 51.8828 53.6529 51.8828C54.5844 51.8828 55.4199 52.0652 56.1594 52.4302L55.5111 54.13C55.1654 53.9907 54.8437 53.8779 54.546 53.7914C54.2483 53.7002 53.9506 53.6546 53.6529 53.6546C52.5101 53.6546 51.9387 54.4661 51.9387 56.089C51.9387 57.664 52.5101 58.4515 53.6529 58.4515C54.0754 58.4515 54.4668 58.3962 54.8269 58.2858C55.187 58.1706 55.5472 57.9929 55.9073 57.7528V59.6327C55.552 59.8583 55.1918 60.0144 54.8269 60.1008C54.4668 60.1873 54.0106 60.2305 53.4584 60.2305ZM61.1723 58.4803C61.5564 58.4803 62.0174 58.3962 62.5552 58.2282V59.8631C62.0078 60.108 61.3356 60.2305 60.5385 60.2305C59.6598 60.2305 59.0188 60.0096 58.6154 59.5678C58.2169 59.1213 58.0176 58.4539 58.0176 57.5656V53.6834H56.966V52.7543L58.1761 52.0196L58.8099 50.3198H60.2144V52.034H62.4688V53.6834H60.2144V57.5656C60.2144 57.8777 60.3008 58.1081 60.4737 58.257C60.6513 58.4058 60.8842 58.4803 61.1723 58.4803ZM65.9404 56.0458C65.9404 56.8429 66.07 57.4455 66.3293 57.8537C66.5934 58.2618 67.0207 58.4659 67.6113 58.4659C68.1971 58.4659 68.6173 58.2642 68.8718 57.8609C69.1311 57.4527 69.2607 56.8477 69.2607 56.0458C69.2607 55.2488 69.1311 54.6509 68.8718 54.2524C68.6125 53.8539 68.1875 53.6546 67.5969 53.6546C67.0111 53.6546 66.5886 53.8539 66.3293 54.2524C66.07 54.6461 65.9404 55.2439 65.9404 56.0458ZM71.5079 56.0458C71.5079 57.3567 71.1622 58.3818 70.4707 59.1213C69.7793 59.8607 68.8165 60.2305 67.5825 60.2305C66.8095 60.2305 66.1276 60.0624 65.537 59.7263C64.9464 59.3854 64.4926 58.898 64.1757 58.2642C63.8588 57.6304 63.7004 56.8909 63.7004 56.0458C63.7004 54.7302 64.0437 53.7074 64.7303 52.9776C65.417 52.2477 66.3821 51.8828 67.6257 51.8828C68.3988 51.8828 69.0806 52.0508 69.6712 52.387C70.2618 52.7231 70.7156 53.2056 71.0325 53.8347C71.3494 54.4637 71.5079 55.2007 71.5079 56.0458ZM77.8173 51.8828C78.115 51.8828 78.3622 51.9044 78.5591 51.9476L78.3935 54.0075C78.2158 53.9595 77.9997 53.9355 77.7452 53.9355C77.0442 53.9355 76.4968 54.1156 76.1031 54.4757C75.7141 54.8358 75.5197 55.34 75.5197 55.9882V60.0864H73.3229V52.034H74.9867L75.3108 53.3881H75.4188C75.6685 52.9368 76.0046 52.5742 76.4272 52.3005C76.8545 52.022 77.3179 51.8828 77.8173 51.8828Z" fill="white"/>
</svg>
